<?xml version="1.0" encoding="utf-8"?>
<!-- Generator: Adobe Illustrator 23.0.2, SVG Export Plug-In . SVG Version: 6.00 Build 0)  -->
<svg version="1.1" id="Layer_1" xmlns="http://www.w3.org/2000/svg" xmlns:xlink="http://www.w3.org/1999/xlink" x="0px" y="0px"
	 viewBox="0 0 2000 2000" style="enable-background:new 0 0 2000 2000;" xml:space="preserve">
<style type="text/css">
	.st0{fill:#1C4F59;}
	.st1{fill:#FFFFFF;}
</style>
<g>
	<g>
		<g>
			<path class="st0" d="M967.68,1545.26c15.56,15.56,28.28,10.28,28.28-11.72V472.46c0-22-12.73-27.27-28.28-11.72L453.71,974.72
				c-15.56,15.56-15.56,41.01,0,56.57L967.68,1545.26z"/>
		</g>
		<g>
			<path class="st0" d="M1039.26,1560.78c-15.56,15.56-28.28,10.28-28.28-11.72V487.98c0-22,12.73-27.27,28.28-11.72l513.97,513.97
				c15.56,15.56,15.56,41.01,0,56.57L1039.26,1560.78z"/>
		</g>
		<g>
			<path class="st0" d="M1551.47,393.9c15.56,15.56,10.28,28.28-11.72,28.28h-490.72c-22,0-27.27-12.73-11.72-28.28l228.79-228.79
				c15.56-15.56,41.01-15.56,56.57,0L1551.47,393.9z"/>
		</g>
		<g>
			<path class="st0" d="M1372.33,28.37c15.51-15.6,10.2-28.36-11.8-28.34L632.45,0.49c-22,0.01-27.23,12.72-11.63,28.22
				L970.29,376.1c15.6,15.51,41.06,15.43,56.57-0.17L1372.33,28.37z"/>
		</g>
		<g>
			<path class="st0" d="M995.97,1960c0,22-12.76,27.3-28.35,11.78l-348.68-347c-15.59-15.52-28.35-46.22-28.35-68.22v-323.44
				c0-22,12.76-27.3,28.35-11.78l348.68,347.01c15.59,15.52,28.35,46.22,28.35,68.22V1960z"/>
		</g>
		<g>
			<path class="st0" d="M1421.37,477.2c0-22-18-40-40-40H1054.6c-22,0-27.17,12.63-11.49,28.06l349.75,344.19
				c15.68,15.43,28.51,10.06,28.51-11.94V477.2z"/>
		</g>
		<g>
			<path class="st0" d="M446.76,446.23c-15.56-15.56-15.56-41.01,0-56.57l228.7-228.7c15.56-15.56,41.01-15.56,56.57,0l228.7,228.7
				c15.56,15.56,15.56,41.01,0,56.57l-228.7,228.7c-15.56,15.56-41.01,15.56-56.57,0L446.76,446.23z"/>
		</g>
		<circle class="st1" cx="807.94" cy="335.49" r="26.9"/>
		<circle class="st1" cx="1182.76" cy="335.49" r="26.9"/>
	</g>
</g>
</svg>
